<svg width="1300" height="382" xmlns="http://www.w3.org/2000/svg" xmlns:xlink="http://www.w3.org/1999/xlink">
  <g transform="translate(942 2980)">
    <clipPath id="a" clip-rule="evenodd">
      <path d="M-942-2980H358v382H-942v-382z" fill="#FFF"/>
    </clipPath>
    <g clip-path="url(#a)">
      <use xlink:href="#path0_fill" transform="translate(-933 -2924)" fill="#72C1ED"/>
      <use xlink:href="#path1_fill" transform="translate(-835.819 -2924)" fill="#72C1ED"/>
      <use xlink:href="#path2_fill" transform="matrix(0 1 -1 0 -662 -2827.68)" fill="#72C1ED"/>
      <use xlink:href="#path3_fill" transform="translate(-933 -2827.68)" fill="#72C1ED"/>
      <g transform="translate(-573.298 -2928.56)">
        <use xlink:href="#path4_fill"/>
        <use xlink:href="#path5_fill"/>
        <use xlink:href="#path6_fill"/>
        <use xlink:href="#path7_fill"/>
      </g>
    </g>
  </g>
  <defs>
    <path id="path0_fill" d="M0 0h79.009v78.947H0V0z"/>
    <path id="path1_fill" d="M0 0h173.819v78.947H0V0z"/>
    <path id="path2_fill" d="M0 0h173.684v79.009H0V0z"/>
    <path id="path3_fill" d="M0 0h173.819v173.684H0V0z"/>
    <path id="path4_fill" d="M0 4.607h89.831c16.636 0 31.735 2.815 45.3 8.445 13.564 5.63 25.081 14.076 34.55 25.337 9.725 11.005 17.147 24.953 22.266 41.845 5.119 16.635 7.678 36.086 7.678 58.352s-2.559 41.844-7.678 58.735c-5.119 16.636-12.541 30.584-22.266 41.845-9.469 11.005-20.986 19.323-34.55 24.953-13.565 5.63-28.664 8.446-45.3 8.446H0V4.607zm89.831 239.55c11.005 0 21.114-1.792 30.328-5.375 9.213-3.839 17.147-9.341 23.801-16.507 6.654-7.166 11.773-15.868 15.356-26.105 3.839-10.493 5.758-22.394 5.758-35.702v-43.764c0-13.309-1.919-25.081-5.758-35.319-3.583-10.493-8.702-19.322-15.356-26.488s-14.588-12.54-23.801-16.124c-9.214-3.839-19.323-5.758-30.328-5.758H32.247v211.142h57.584z"/>
    <path id="path5_fill" d="M420.817 272.565l-26.873-79.082H285.686l-26.873 79.082h-32.63l93.67-267.958h41.076l93.67 267.958h-33.782zM340.583 34.55h-1.92l-45.299 130.524h92.518L340.583 34.55z"/>
    <path id="path6_fill" d="M574.23 277.171c-21.754 0-40.309-4.094-55.664-12.284-15.356-8.446-28.408-19.963-39.157-34.551l23.801-19.962c9.469 12.54 19.962 22.138 31.479 28.792 11.517 6.398 25.081 9.597 40.693 9.597 19.195 0 33.783-4.606 43.764-13.82 10.237-9.213 15.356-21.498 15.356-36.854 0-12.796-3.839-22.649-11.517-29.56-7.678-6.91-20.347-12.412-38.006-16.507l-21.882-4.991c-24.569-5.63-43.38-14.076-56.432-25.337-12.796-11.516-19.195-27.64-19.195-48.37 0-11.773 2.176-22.266 6.526-31.48 4.351-9.213 10.366-16.89 18.043-23.033 7.934-6.143 17.276-10.75 28.025-13.82C551.069 1.664 563.097 0 576.15 0c20.218 0 37.493 3.711 51.825 11.133 14.588 7.422 26.873 18.299 36.854 32.63l-24.185 17.66c-7.422-10.237-16.38-18.299-26.873-24.185-10.493-5.887-23.545-8.83-39.157-8.83-17.147 0-30.711 3.711-40.693 11.133-9.725 7.166-14.588 18.043-14.588 32.631 0 12.797 4.095 22.522 12.285 29.176 8.446 6.398 21.114 11.517 38.006 15.356l21.882 4.99c26.36 5.887 45.427 14.844 57.2 26.873 11.773 12.029 17.659 28.024 17.659 47.987 0 12.284-2.176 23.417-6.526 33.398-4.095 9.982-10.11 18.427-18.043 25.337-7.934 6.911-17.659 12.285-29.176 16.124-11.261 3.839-24.058 5.758-38.39 5.758z"/>
    <path id="path7_fill" d="M889.812 145.112H754.298v127.453H722.05V4.607h32.248v112.097h135.514V4.607h32.247v267.958h-32.247V145.112z"/>
  </defs>
</svg>
